<svg width="180" height="54" viewBox="0 0 180 54" xmlns="http://www.w3.org/2000/svg"><title>vote-bg</title><g fill="none" fill-rule="evenodd"><path d="M23.777 9.865l-5.25-4.667A.794.794 0 0 0 18 5c-.2 0-.387.073-.527.198l-5.25 4.667a.629.629 0 0 0-.223.468c0 .365.34.667.75.667h10.5c.41 0 .75-.302.75-.667a.629.629 0 0 0-.223-.468zM23.777 44.135l-5.25 4.667A.794.794 0 0 1 18 49a.794.794 0 0 1-.527-.198l-5.25-4.667a.629.629 0 0 1-.223-.468c0-.365.34-.667.75-.667h10.5c.41 0 .75.302.75.667a.629.629 0 0 1-.223.468z" fill="#666"/><path d="M59.777 9.865l-5.25-4.667A.794.794 0 0 0 54 5c-.2 0-.387.073-.527.198l-5.25 4.667a.629.629 0 0 0-.223.468c0 .365.34.667.75.667h10.5c.41 0 .75-.302.75-.667a.629.629 0 0 0-.223-.468zM59.777 44.135l-5.25 4.667A.794.794 0 0 1 54 49a.794.794 0 0 1-.527-.198l-5.25-4.667a.629.629 0 0 1-.223-.468c0-.365.34-.667.75-.667h10.5c.41 0 .75.302.75.667a.629.629 0 0 1-.223.468z" fill="#F5A623"/><path d="M95.777 9.865l-5.25-4.667A.794.794 0 0 0 90 5c-.2 0-.387.073-.527.198l-5.25 4.667a.629.629 0 0 0-.223.468c0 .365.34.667.75.667h10.5c.41 0 .75-.302.75-.667a.629.629 0 0 0-.223-.468z" fill="#009A61"/><path d="M135.777 7.865l-5.25-4.667A.794.794 0 0 0 130 3c-.2 0-.387.073-.527.198l-5.25 4.667a.629.629 0 0 0-.223.468c0 .365.34.667.75.667h10.5c.41 0 .75-.302.75-.667a.629.629 0 0 0-.223-.468z" fill="#666"/><path d="M155.777 7.865l-5.25-4.667A.794.794 0 0 0 150 3c-.2 0-.387.073-.527.198l-5.25 4.667a.629.629 0 0 0-.223.468c0 .365.34.667.75.667h10.5c.41 0 .75-.302.75-.667a.629.629 0 0 0-.223-.468z" fill="#F5A623"/><path d="M95.777 44.135l-5.25 4.667A.794.794 0 0 1 90 49a.794.794 0 0 1-.527-.198l-5.25-4.667a.629.629 0 0 1-.223-.468c0-.365.34-.667.75-.667h10.5c.41 0 .75.302.75.667a.629.629 0 0 1-.223.468z" fill="#AD3A37"/><path d="M175.777 7.865l-5.25-4.667A.794.794 0 0 0 170 3c-.2 0-.387.073-.527.198l-5.25 4.667a.629.629 0 0 0-.223.468c0 .365.34.667.75.667h10.5c.41 0 .75-.302.75-.667a.629.629 0 0 0-.223-.468z" fill="#009A61"/></g></svg>